<?xml version="1.0" encoding="UTF-8"?><svg id="b" xmlns="http://www.w3.org/2000/svg" width="28" height="28" viewBox="0 0 28 28"><defs><style>.d{fill:#1a171b;}</style></defs><g id="c"><path class="d" d="M24.914,5.743c-.254-.653-.558-1.12-1.047-1.61-.49-.49-.956-.793-1.61-1.047-.493-.192-1.235-.42-2.6-.482-1.476-.067-1.919-.082-5.657-.082s-4.181,.015-5.657,.082c-1.365,.062-2.106,.29-2.6,.482-.653,.254-1.12,.557-1.61,1.047-.49,.49-.793,.956-1.047,1.61-.192,.493-.42,1.235-.482,2.6-.067,1.476-.082,1.919-.082,5.657s.014,4.181,.082,5.657c.062,1.365,.29,2.106,.482,2.6,.254,.653,.558,1.12,1.047,1.61,.49,.49,.956,.793,1.61,1.047,.494,.192,1.235,.42,2.6,.482,1.476,.067,1.919,.082,5.657,.082s4.181-.015,5.657-.082c1.365-.062,2.107-.29,2.6-.482,.654-.254,1.12-.558,1.61-1.047,.489-.49,.793-.956,1.047-1.61,.192-.494,.42-1.235,.482-2.6,.068-1.476,.082-1.919,.082-5.657s-.014-4.181-.082-5.657c-.062-1.365-.29-2.106-.482-2.6Zm-10.914,15.446c-3.97,0-7.189-3.219-7.189-7.189s3.219-7.189,7.189-7.189,7.189,3.219,7.189,7.189-3.219,7.189-7.189,7.189Zm7.473-12.983c-.928,0-1.68-.752-1.68-1.68s.752-1.68,1.68-1.68,1.68,.752,1.68,1.68-.753,1.68-1.68,1.68Zm-7.473,1.127c-2.577,0-4.666,2.09-4.666,4.667s2.089,4.667,4.666,4.667,4.667-2.089,4.667-4.667-2.089-4.667-4.667-4.667Zm13.916,10.439c-.068,1.49-.305,2.508-.65,3.398-.358,.921-.837,1.701-1.615,2.48-.779,.778-1.559,1.257-2.48,1.615-.891,.346-1.908,.583-3.398,.651-1.493,.068-1.97,.084-5.772,.084s-4.279-.017-5.772-.084c-1.49-.068-2.508-.305-3.398-.651-.921-.358-1.701-.836-2.48-1.615-.779-.779-1.257-1.559-1.615-2.48-.346-.891-.583-1.908-.651-3.398-.068-1.494-.084-1.97-.084-5.772s.016-4.279,.084-5.772c.068-1.49,.305-2.508,.651-3.398,.358-.921,.836-1.702,1.615-2.48,.778-.778,1.559-1.257,2.48-1.615,.89-.346,1.908-.583,3.398-.651,1.493-.068,1.97-.084,5.772-.084s4.279,.016,5.772,.084c1.49,.068,2.508,.305,3.398,.651,.921,.358,1.701,.837,2.48,1.615,.778,.778,1.257,1.559,1.615,2.48,.346,.89,.582,1.908,.65,3.398,.068,1.493,.084,1.97,.084,5.772s-.016,4.279-.084,5.772Z"/></g></svg>