<?xml version="1.0" encoding="UTF-8"?><svg id="b" xmlns="http://www.w3.org/2000/svg" width="32.792" height="26.645" viewBox="0 0 32.792 26.645"><defs><style>.f{fill:#fff;}</style></defs><g id="c"><g id="d"><path id="e" class="f" d="M29.434,6.633c.02,.289,.02,.578,.02,.87,0,8.89-6.767,19.142-19.142,19.142v-.005c-3.655,.005-7.235-1.042-10.312-3.016,.531,.064,1.066,.096,1.601,.097,3.029,.002,5.972-1.014,8.355-2.886-2.879-.055-5.403-1.932-6.285-4.672,1.008,.194,2.047,.154,3.037-.116-3.139-.634-5.396-3.392-5.396-6.595v-.085c.935,.521,1.982,.81,3.053,.842C1.409,8.234,.498,4.302,2.283,1.227c3.416,4.203,8.455,6.758,13.865,7.029-.542-2.337,.199-4.785,1.946-6.428,2.709-2.547,6.971-2.416,9.518,.292,1.507-.297,2.95-.85,4.272-1.633-.502,1.557-1.553,2.88-2.958,3.721,1.334-.157,2.636-.514,3.863-1.059-.904,1.353-2.041,2.532-3.357,3.485Z"/></g></g></svg>