<?xml version="1.0" encoding="UTF-8"?><svg id="b" xmlns="http://www.w3.org/2000/svg" width="31" height="21.841" viewBox="0 0 31 21.841"><defs><style>.d{fill:#1a171b;}</style></defs><g id="c"><path class="d" d="M30.353,3.411c-.357-1.343-1.407-2.4-2.741-2.759-2.418-.652-12.112-.652-12.112-.652,0,0-9.694,0-12.111,.652-1.334,.359-2.384,1.416-2.741,2.759-.648,2.433-.648,7.51-.648,7.51,0,0,0,5.077,.648,7.51,.357,1.342,1.407,2.4,2.741,2.759,2.418,.652,12.111,.652,12.111,.652,0,0,9.694,0,12.112-.652,1.334-.359,2.384-1.416,2.741-2.759,.647-2.433,.647-7.51,.647-7.51,0,0,0-5.077-.647-7.51ZM12.636,15.53V6.311l8.102,4.609-8.102,4.609Z"/></g></svg>