<?xml version="1.0" encoding="UTF-8"?><svg id="b" xmlns="http://www.w3.org/2000/svg" width="15.902" height="16" viewBox="0 0 15.902 16"><g id="c"><g><path d="m13.268,8.267c-.405,0-.733.328-.733.733v4.524c0,.557-.453,1.011-1.011,1.011H2.476c-.557,0-1.011-.453-1.011-1.011V4.475c0-.557.453-1.011,1.011-1.011h4.524c.405,0,.733-.328.733-.733s-.328-.733-.733-.733H2.476C1.111,1.999,0,3.11,0,4.475v9.049c0,1.365,1.111,2.476,2.476,2.476h9.049c1.365,0,2.476-1.111,2.476-2.476v-4.524c0-.405-.328-.733-.733-.733Z"/><path d="m15.844.546c-.083-.314-.368-.546-.709-.546h-4.67c-.405,0-.733.328-.733.733s.328.733.733.733h3.034l-7.016,7.016c-.286.286-.286.75,0,1.036.143.143.331.215.518.215s.375-.072.518-.215l6.918-6.918v2.901c0,.405.328.733.733.733s.733-.328.733-.733V.831c0-.1-.021-.196-.058-.285Z"/></g></g></svg>